<?xml version="1.0" encoding="utf-8" ?>
<svg baseProfile="full" height="100%" version="1.1" width="100%" xmlns="http://www.w3.org/2000/svg" xmlns:ev="http://www.w3.org/2001/xml-events" xmlns:xlink="http://www.w3.org/1999/xlink"><defs><linearGradient id="id1" x1="0" x2="0" y1="0" y2="1"><stop offset="0.0" stop-color="#0A0F1C" stop-opacity="1" /><stop offset="0.5" stop-color="#31506B" stop-opacity="1" /><stop offset="1.0" stop-color="#374150" stop-opacity="1" /></linearGradient></defs><rect fill="url(#id1) none" height="100%" width="100%" x="0" y="0" /><circle cx="854.9154572944168" cy="703.4918764197579" fill="white" opacity="0.2417852652230173" r="12.209219472685337" /><line opacity="0.4921694281572687" stroke="white" stroke-width="1.6243632457483321" x1="233.15654237681338" x2="60.24680902142998" y1="507.0934720347556" y2="455.37502071911973" /><circle cx="369.60801261620355" cy="225.4238205544258" fill="white" opacity="0.2863484996494803" r="10.854523256188699" /><line opacity="0.3714574058364203" stroke="white" stroke-width="1.8878261568044223" x1="181.86825386029759" x2="100.49334302989365" y1="675.6322276721781" y2="973.24103569222" /><circle cx="592.0500403233698" cy="380.9773089085049" fill="white" opacity="0.2469888813995421" r="11.15492144884399" /><line opacity="0.20099481038633724" stroke="white" stroke-width="1.1200706991419653" x1="381.2450466880987" x2="500.7479629979912" y1="874.6523850925327" y2="280.0013680201412" /><circle cx="517.9504096810757" cy="667.7444913861572" fill="white" opacity="0.23538072915858593" r="17.82332976672041" /><line opacity="0.13158431658956504" stroke="white" stroke-width="1.6919377120839894" x1="789.9846645460027" x2="197.80175357496188" y1="914.4569716420432" y2="433.3892852916802" /><circle cx="940.4531723167458" cy="554.8925842293932" fill="white" opacity="0.2510052920355019" r="15.160491658856337" /><line opacity="0.3633432979446689" stroke="white" stroke-width="0.532038433215022" x1="847.5770196690263" x2="350.81270775985064" y1="190.09941281577102" y2="35.99331278509143" /><circle cx="375.59055298163514" cy="860.1414090378147" fill="white" opacity="0.2531161407143251" r="14.586655948202774" /><line opacity="0.22117429954748383" stroke="white" stroke-width="0.5224049952173196" x1="61.792389485009316" x2="76.63623370590888" y1="7.3195918254881365" y2="734.6499979265864" /><circle cx="38.139659068366136" cy="359.3762300881838" fill="white" opacity="0.3184296490688411" r="6.643384100280667" /><line opacity="0.47430738700597164" stroke="white" stroke-width="0.8241711015539313" x1="339.73306751106355" x2="700.0546992264084" y1="517.3697206578447" y2="262.2893400086329" /><circle cx="806.7180926317699" cy="994.4410387204389" fill="white" opacity="0.2747322760820201" r="14.353919228501605" /><line opacity="0.18112201360868718" stroke="white" stroke-width="0.7524001072334696" x1="757.2864707136971" x2="556.6844838325821" y1="555.2677240889004" y2="259.9857621304358" /><circle cx="247.1412566489952" cy="672.3682824665468" fill="white" opacity="0.40086318987415115" r="6.909404960281767" /><line opacity="0.11383028932010442" stroke="white" stroke-width="0.8244553877814098" x1="170.42337412453912" x2="629.5668870727711" y1="370.0712057767883" y2="604.8888276397095" /><circle cx="869.5406987212273" cy="783.7958032042998" fill="white" opacity="0.3057232286307188" r="5.6070041882738595" /><line opacity="0.4028514274630187" stroke="white" stroke-width="0.8834405091298878" x1="390.5216553220747" x2="167.2744485816976" y1="723.2399521215812" y2="270.5887303896506" /><circle cx="747.492889531291" cy="608.990818709793" fill="white" opacity="0.3605993852441214" r="18.608108072761997" /><line opacity="0.2792339926703915" stroke="white" stroke-width="1.5757030584893088" x1="452.2026811246219" x2="202.54013155947325" y1="707.3394732474295" y2="613.0338985157236" /><circle cx="463.2136022640385" cy="224.93702174574992" fill="white" opacity="0.5813728919293847" r="10.374915909499602" /><line opacity="0.3240203583686958" stroke="white" stroke-width="1.7373974938011834" x1="567.6888184490994" x2="708.1229939552096" y1="408.98293730244575" y2="446.9398806807748" /><circle cx="826.5920449667265" cy="865.7506236745209" fill="white" opacity="0.19728421112879785" r="10.858329795232281" /><line opacity="0.40438706158789584" stroke="white" stroke-width="0.5155145155811813" x1="5.887842525427733" x2="912.1285860716125" y1="623.4140137567182" y2="110.76800737951974" /><circle cx="798.5537724877503" cy="28.305027448912057" fill="white" opacity="0.3337565920275348" r="8.799512295856367" /><line opacity="0.3137753044439354" stroke="white" stroke-width="1.3082888429655717" x1="861.9767036813192" x2="242.2864419413451" y1="866.7062910953742" y2="14.132530537401934" /><circle cx="484.20586792619144" cy="728.4385497154191" fill="white" opacity="0.5375637718764672" r="16.394693080875705" /><line opacity="0.13744003882659822" stroke="white" stroke-width="1.0842679566218298" x1="961.1260292375979" x2="802.8993119759452" y1="505.14144401093375" y2="925.8781497826909" /><circle cx="146.79638177384834" cy="190.16652040151905" fill="white" opacity="0.7623512189008294" r="14.875139268430624" /><line opacity="0.11522658447430048" stroke="white" stroke-width="1.7384711375516204" x1="946.5659716495908" x2="908.221159685002" y1="747.9354512190778" y2="261.42926176370264" /><circle cx="932.8059973795155" cy="280.36329613093534" fill="white" opacity="0.6586465707292648" r="16.68893533832079" /><line opacity="0.38863915398964" stroke="white" stroke-width="1.1653704076702143" x1="750.7556358968326" x2="791.5321358131077" y1="258.6662931022473" y2="246.9240447314629" /><circle cx="962.494584811879" cy="1.6894386917511994" fill="white" opacity="0.47853930152254276" r="6.808817112802431" /><line opacity="0.49968333900208306" stroke="white" stroke-width="0.6238350963790544" x1="508.805484274927" x2="839.783395911346" y1="328.85008315048316" y2="231.12903216149272" /><circle cx="546.0009277740164" cy="342.79151701006674" fill="white" opacity="0.7825375823961883" r="13.27866945178485" /><line opacity="0.19189324306147057" stroke="white" stroke-width="1.2773165336088426" x1="382.2433934721826" x2="277.5216686434084" y1="459.2996075633297" y2="985.9091123755617" /><circle cx="982.0289846182858" cy="772.9659351560503" fill="white" opacity="0.6806120162667889" r="13.960996718379416" /><line opacity="0.26507384668743816" stroke="white" stroke-width="1.248538377668148" x1="996.0286718548346" x2="426.37866008181925" y1="919.183024136254" y2="147.9888323276207" /><circle cx="934.2815171244738" cy="882.3462640654141" fill="white" opacity="0.7033901585328068" r="5.85238573377357" /><line opacity="0.23752391409768123" stroke="white" stroke-width="1.059371025030433" x1="540.7572355376172" x2="161.5365781891297" y1="728.3749519180608" y2="512.4662383368062" /><circle cx="97.6431142706895" cy="4.274281084680531" fill="white" opacity="0.660258940336855" r="5.4055221216623375" /><line opacity="0.19732682940671362" stroke="white" stroke-width="1.6891179167053225" x1="945.8190777403485" x2="406.6246551471565" y1="984.9655982490467" y2="313.9454649721819" /><circle cx="718.152812894193" cy="652.9803493867479" fill="white" opacity="0.11950376083202342" r="16.953121197848464" /><line opacity="0.13594560743568238" stroke="white" stroke-width="1.557576149539818" x1="624.1157964086991" x2="85.76510359968825" y1="873.5242851351114" y2="590.5275885796254" /><circle cx="847.4943586457737" cy="584.5489570122305" fill="white" opacity="0.7114734209746895" r="8.701068783932698" /><line opacity="0.4293874081297727" stroke="white" stroke-width="0.9888443926745594" x1="967.563953948751" x2="831.7984317893922" y1="966.7348258798887" y2="478.2174218676052" /><circle cx="979.6723780514968" cy="162.082645877913" fill="white" opacity="0.5379067834254346" r="18.630738473504486" /><line opacity="0.12725904996224374" stroke="white" stroke-width="0.9555273748579969" x1="637.2723854855866" x2="896.0883002928048" y1="153.3554369558463" y2="211.68525247017388" /><circle cx="995.5268605557479" cy="86.79739647045182" fill="white" opacity="0.6305176572519899" r="5.448330289142219" /><line opacity="0.2907059554496214" stroke="white" stroke-width="0.6754452038575395" x1="376.01008140267334" x2="92.46749510841956" y1="327.8947322533372" y2="615.7007571279228" /><circle cx="339.6871815889962" cy="27.748563511243884" fill="white" opacity="0.5426382341302097" r="14.743650425588152" /><line opacity="0.22572516937185838" stroke="white" stroke-width="1.4742774121149473" x1="76.99080473565212" x2="62.368248942411" y1="980.1348625239626" y2="773.9060205359218" /><circle cx="902.4748187593013" cy="414.4628077537445" fill="white" opacity="0.5591526912828212" r="5.071680527832822" /><line opacity="0.31201043367629394" stroke="white" stroke-width="1.238863091694143" x1="739.963446228938" x2="246.3600360955175" y1="308.7606509467287" y2="124.2574636786089" /><circle cx="653.3173890107621" cy="228.41495450364434" fill="white" opacity="0.6106520657103163" r="16.04242212173412" /><line opacity="0.49742898207700104" stroke="white" stroke-width="0.5959055106214922" x1="874.9585485581382" x2="951.3502571212318" y1="497.7509639366874" y2="423.5838316789011" /><circle cx="860.7013834923578" cy="203.49105360854213" fill="white" opacity="0.2865230575207783" r="12.67057873480538" /><line opacity="0.1996093924006561" stroke="white" stroke-width="1.1594278734057688" x1="477.20568225864935" x2="45.7560517248734" y1="541.3047250567555" y2="201.71930611395805" /></svg>